<?xml version="1.0" encoding="UTF-8" standalone="no"?>
<svg width="47px" height="51px" viewBox="0 0 47 51" version="1.1" xmlns="http://www.w3.org/2000/svg" xmlns:xlink="http://www.w3.org/1999/xlink" xmlns:sketch="http://www.bohemiancoding.com/sketch/ns">
    <!-- Generator: Sketch 3.4.4 (17249) - http://www.bohemiancoding.com/sketch -->
    <title>Fill 236</title>
    <desc>Created with Sketch.</desc>
    <defs></defs>
    <g id="Page-1" stroke="none" stroke-width="1" fill="none" fill-rule="evenodd" sketch:type="MSPage">
        <g id="Desktop-HD-Copy-3" sketch:type="MSArtboardGroup" transform="translate(-53.000000, -308.000000)" fill="#FFFFFF">
            <path d="M64.15625,317.5625 C62.836625,317.5625 61.7664219,316.492297 61.7664219,315.171875 L61.7664219,310.390625 C61.7664219,309.070203 62.836625,308 64.15625,308 C65.4766719,308 66.546875,309.070203 66.546875,310.390625 L66.546875,315.171875 C66.546875,316.492297 65.4766719,317.5625 64.15625,317.5625 L64.15625,317.5625 Z M76.1101719,317.5625 C74.78975,317.5625 73.7195469,316.492297 73.7195469,315.171875 L73.7195469,310.390625 C73.7195469,309.070203 74.78975,308 76.1101719,308 C77.4297969,308 78.5,309.070203 78.5,310.390625 L78.5,315.171875 C78.5,316.492297 77.4297969,317.5625 76.1101719,317.5625 L76.1101719,317.5625 Z M88.0625,317.5625 C86.742875,317.5625 85.671875,316.492297 85.671875,315.171875 L85.671875,310.390625 C85.671875,309.070203 86.742875,308 88.0625,308 C89.3829219,308 90.453125,309.070203 90.453125,310.390625 L90.453125,315.171875 C90.453125,316.492297 89.3829219,317.5625 88.0625,317.5625 L88.0625,317.5625 Z M90.8515625,347.046875 L61.3671875,347.046875 C60.2675,347.046875 59.3757969,347.938578 59.3757969,349.039063 C59.3757969,350.13875 60.2675,351.03125 61.3671875,351.03125 L90.8515625,351.03125 C91.9520469,351.03125 92.84375,350.13875 92.84375,349.039063 C92.84375,347.938578 91.9520469,347.046875 90.8515625,347.046875 L90.8515625,347.046875 Z M90.453125,336.6875 L61.7664219,336.6875 C60.446,336.6875 59.3757969,337.757703 59.3757969,339.078125 C59.3757969,340.398547 60.446,341.46875 61.7664219,341.46875 L90.453125,341.46875 C91.7735469,341.46875 92.84375,340.398547 92.84375,339.078125 C92.84375,337.757703 91.7735469,336.6875 90.453125,336.6875 L90.453125,336.6875 Z M90.453125,326.328125 L61.7664219,326.328125 C60.446,326.328125 59.3757969,327.398328 59.3757969,328.71875 C59.3757969,330.039172 60.446,331.109375 61.7664219,331.109375 L90.453125,331.109375 C91.7735469,331.109375 92.84375,330.039172 92.84375,328.71875 C92.84375,327.398328 91.7735469,326.328125 90.453125,326.328125 L90.453125,326.328125 Z M96.828125,359 L55.390625,359 C54.071,359 53,357.929797 53,356.609375 L53,315.171875 C53,313.851453 54.071,312.78125 55.390625,312.78125 L59.3757969,312.78125 L59.3757969,315.171875 C59.3757969,317.812719 61.5162031,319.953125 64.15625,319.953125 C66.7970938,319.953125 68.9375,317.812719 68.9375,315.171875 L68.9375,312.78125 L71.328125,312.78125 L71.328125,315.171875 C71.328125,317.812719 73.4693281,319.953125 76.1101719,319.953125 C78.7502188,319.953125 80.890625,317.812719 80.890625,315.171875 L80.890625,312.78125 L83.28125,312.78125 L83.28125,315.171875 C83.28125,317.812719 85.4224531,319.953125 88.0625,319.953125 C90.7033438,319.953125 92.84375,317.812719 92.84375,315.171875 L92.84375,312.78125 L96.828125,312.78125 C98.1485469,312.78125 99.21875,313.851453 99.21875,315.171875 L99.21875,356.609375 C99.21875,357.929797 98.1485469,359 96.828125,359 L96.828125,359 Z" id="Fill-236" sketch:type="MSShapeGroup"></path>
        </g>
    </g>
</svg>